<svg xmlns="http://www.w3.org/2000/svg" xmlns:xlink="http://www.w3.org/1999/xlink" version="1.1" width="256" height="256" viewBox="0 0 100 256" xml:space="preserve" fill="#ffffff" id="uploaded-svg" pointer-events="all">

<g transform="matrix(1 0 0 1 0 0) translate(-21 48) rotate(0) scale(2.25 2.25) skewX(0) skewY(0)">
	<path d="M 76.777 2.881 H 57.333 V 2.412 C 57.333 1.08 56.253 0 54.921 0 H 35.079 c -1.332 0 -2.412 1.08 -2.412 2.412 v 0.469 H 13.223 c -1.332 0 -2.412 1.08 -2.412 2.412 v 9.526 c 0 1.332 1.08 2.412 2.412 2.412 h 63.554 c 1.332 0 2.412 -1.08 2.412 -2.412 V 5.293 C 79.189 3.961 78.109 2.881 76.777 2.881 z" transform="matrix(1 0 0 1 0 0) translate(0 9) rotate(31) scale(1 1) skewX(0) skewY(0)" stroke-linecap="round" data-active="true" transform-origin="79.1890058517456 17.231000900268555"/>
	<path d="M 73.153 22.119 H 16.847 c -1.332 0 -2.412 1.08 -2.412 2.412 v 63.057 c 0 1.332 1.08 2.412 2.412 2.412 h 56.306 c 1.332 0 2.412 -1.08 2.412 -2.412 V 24.531 C 75.565 23.199 74.485 22.119 73.153 22.119 z M 33.543 81.32 c 0 1.332 -1.08 2.412 -2.412 2.412 h -2.245 c -1.332 0 -2.412 -1.08 -2.412 -2.412 V 30.799 c 0 -1.332 1.08 -2.412 2.412 -2.412 h 2.245 c 1.332 0 2.412 1.08 2.412 2.412 V 81.32 z M 48.535 81.32 c 0 1.332 -1.08 2.412 -2.412 2.412 h -2.245 c -1.332 0 -2.412 -1.08 -2.412 -2.412 V 30.799 c 0 -1.332 1.08 -2.412 2.412 -2.412 h 2.245 c 1.332 0 2.412 1.08 2.412 2.412 V 81.32 z M 63.526 81.32 c 0 1.332 -1.08 2.412 -2.412 2.412 h -2.245 c -1.332 0 -2.412 -1.08 -2.412 -2.412 V 30.799 c 0 -1.332 1.08 -2.412 2.412 -2.412 h 2.245 c 1.332 0 2.412 1.08 2.412 2.412 V 81.32 z" transform="matrix(1 0 0 1 0 0) translate(-2 0) rotate(0) scale(1 1) skewX(0) skewY(0)"/>
</g>
</svg>